ply
format ascii 1.0
comment Created by Blender 2.79 (sub 0) - www.blender.org, source file: 'ao.blend'
element vertex 16
property float x
property float y
property float z
element face 28
property list uchar uint vertex_indices
end_header
1.000000 0.000000 3.000000
1.000000 -1.000000 5.000000
1.000000 -1.000000 3.000000
1.000000 0.000000 5.000000
-1.000000 -1.000000 5.000000
-1.000000 0.000000 5.000000
-1.000000 -1.000000 3.000000
-1.000000 0.000000 3.000000
-0.900000 0.000000 4.900000
-0.900000 -0.900000 3.100000
-0.900000 0.000000 3.100000
0.900000 0.000000 4.900000
0.900000 0.000000 3.100000
0.900000 -0.900000 4.900000
-0.900000 -0.900000 4.900000
0.900000 -0.900000 3.100000
3 0 1 2
3 3 4 1
3 5 6 4
3 7 2 6
3 4 2 1
3 3 8 5
3 8 9 10
3 5 10 7
3 0 11 3
3 7 12 0
3 13 9 14
3 12 13 11
3 10 15 12
3 11 14 8
3 0 3 1
3 3 5 4
3 5 7 6
3 7 0 2
3 4 6 2
3 3 11 8
3 8 14 9
3 5 8 10
3 0 12 11
3 7 10 12
3 13 15 9
3 12 15 13
3 10 9 15
3 11 13 14
