ply
format ascii 1.0
comment Created by Blender 2.79 (sub 0) - www.blender.org, source file: ''
element vertex 367
property float x
property float y
property float z
element face 740
property list uchar uint vertex_indices
end_header
-1.000000 0.100000 -0.090909
-1.000000 0.100000 -0.272727
-1.000000 -0.100000 -1.000000
0.090909 0.100000 -1.000000
0.272727 0.100000 -1.000000
1.000000 -0.100000 -1.000000
1.000000 0.100000 0.090909
1.000000 0.100000 0.272727
1.000000 -0.100000 1.000000
-0.090909 0.100000 1.000000
-0.272727 0.100000 1.000000
-1.000000 -0.100000 1.000000
0.272727 0.100000 -0.636364
0.272727 0.300000 -0.454545
0.272727 0.100000 -0.454545
0.818182 0.100000 0.818182
1.000000 0.100000 1.000000
1.000000 0.100000 0.818182
-0.272727 0.100000 -0.090909
-0.272727 0.138760 0.090909
-0.272727 0.100000 0.090909
0.454545 0.100000 0.818182
0.636364 0.100000 1.000000
0.636364 0.100000 0.818182
0.272727 0.100000 0.818182
0.454545 0.100000 1.000000
-0.090909 0.100000 -0.818182
-0.272727 0.620473 -0.818182
-0.272727 0.100000 -0.818182
-0.090909 0.100000 0.818182
0.090909 0.100000 1.000000
0.090909 0.100000 0.818182
-1.000000 0.138760 -0.272727
-0.454545 0.100000 0.818182
-0.272727 0.100000 0.818182
-0.636364 0.100000 0.818182
-0.454545 0.100000 1.000000
0.818182 0.100000 -0.272727
0.636364 0.138760 -0.272727
0.636364 0.100000 -0.272727
0.636364 0.100000 0.272727
0.636364 0.138760 0.090909
0.636364 0.100000 0.090909
0.818182 0.100000 -0.818182
1.000000 0.100000 -0.636364
1.000000 0.100000 -0.818182
0.818182 0.100000 -0.636364
1.000000 0.100000 -0.454545
0.818182 0.100000 -0.454545
1.000000 0.100000 -0.272727
-0.272727 0.693883 -0.636364
-0.272727 0.100000 -0.636364
0.818182 0.100000 -0.090909
1.000000 0.100000 -0.090909
0.818182 0.100000 0.090909
-0.272727 0.100000 0.636364
-0.272727 0.620473 0.818182
0.818182 0.100000 0.454545
1.000000 0.100000 0.636364
1.000000 0.100000 0.454545
0.818182 0.100000 0.636364
0.636364 0.100000 -1.000000
0.818182 0.100000 -1.000000
0.818182 0.100000 0.272727
1.000000 0.620473 0.272727
0.636364 0.100000 -0.636364
-0.272727 0.100000 -0.272727
-0.272727 0.138760 -0.454545
-0.272727 0.100000 -0.454545
-0.090909 0.100000 0.090909
-0.090909 0.300000 0.272727
-0.090909 0.100000 0.272727
0.636364 0.100000 -0.090909
-0.636364 0.100000 0.272727
-0.636364 0.138760 0.454545
-0.636364 0.100000 0.454545
0.636364 0.100000 0.454545
0.636364 0.100000 0.636364
-0.636364 0.100000 -1.000000
-0.636364 0.620473 -0.818182
-0.636364 0.100000 -0.818182
0.454545 0.100000 -0.818182
0.636364 0.100000 -0.818182
0.454545 0.100000 -0.636364
0.636364 0.100000 -0.454545
0.090909 0.100000 -0.090909
0.090909 1.217105 -0.272727
0.090909 0.100000 -0.272727
0.818182 0.620473 0.272727
0.090909 0.100000 0.272727
0.272727 2.198564 0.272727
0.272727 0.100000 0.272727
0.454545 0.100000 0.090909
0.454545 0.100000 0.272727
-1.000000 0.100000 -0.454545
-1.000000 0.300000 -0.636364
-1.000000 0.100000 -0.636364
0.454545 0.100000 0.636364
0.818182 0.138760 -0.454545
0.272727 0.100000 -0.818182
0.818182 0.100000 1.000000
0.636364 0.138760 1.000000
0.454545 0.100000 -0.272727
0.454545 0.100000 -0.454545
0.272727 0.100000 -0.272727
0.454545 0.100000 -0.090909
0.272727 0.100000 -0.090909
-0.090909 0.100000 -0.272727
-0.272727 0.138760 -0.272727
0.454545 0.100000 0.454545
-0.090909 1.217105 0.090909
0.272727 0.100000 0.636364
0.090909 0.100000 -0.818182
-0.818182 0.100000 -0.636364
-0.818182 0.300000 -0.454545
-0.818182 0.100000 -0.454545
0.090909 0.100000 0.454545
0.090909 2.198564 0.272727
-0.272727 1.217105 0.454545
-0.272727 0.100000 0.454545
0.272727 0.100000 0.090909
0.090909 0.620473 0.090909
0.090909 0.100000 0.090909
0.090909 2.198564 -0.272727
0.272727 0.100000 0.454545
0.090909 0.100000 0.636364
-0.090909 0.100000 -1.000000
0.272727 0.100000 1.000000
0.090909 0.620473 1.000000
0.272727 0.138760 0.272727
-0.090909 0.100000 -0.454545
0.090909 0.100000 -0.454545
0.272727 2.198564 -0.272727
-0.090909 0.100000 -0.090909
0.090909 1.217105 -0.090909
-0.090909 0.300000 0.636364
-0.090909 0.100000 0.636364
-0.454545 0.620473 0.636364
-0.454545 0.100000 0.636364
-0.090909 0.100000 -0.636364
0.636364 0.138760 -0.454545
-0.090909 1.217105 -0.090909
0.090909 0.300000 -0.636364
0.090909 0.100000 -0.636364
-0.272727 0.100000 0.272727
-0.090909 0.100000 0.454545
-0.272727 1.217105 0.272727
-0.090909 0.138760 -0.454545
-0.454545 0.100000 0.272727
-0.272727 0.693883 0.272727
-0.454545 0.100000 -0.636364
-0.454545 0.100000 -0.272727
-0.454545 2.198564 -0.454545
-0.454545 0.100000 -0.454545
-0.454545 0.100000 -0.090909
-0.454545 0.693883 -0.272727
-0.272727 0.100000 -1.000000
-0.272727 0.138760 -0.818182
0.272727 1.217105 -0.272727
-0.272727 0.693883 0.454545
-0.454545 0.100000 0.454545
0.272727 0.620473 -0.090909
-0.454545 0.100000 -0.818182
-0.454545 0.100000 -1.000000
0.636364 0.300000 0.636364
-0.636364 0.100000 -0.636364
0.090909 0.300000 0.454545
-0.636364 0.100000 -0.272727
-0.636364 0.100000 -0.090909
-0.454545 0.100000 0.090909
-0.636364 2.198564 0.090909
-0.636364 0.100000 0.090909
-0.272727 0.300000 0.090909
-0.636364 0.100000 0.636364
0.272727 0.620473 1.000000
-0.818182 0.100000 -0.818182
-0.636364 0.100000 -0.454545
-0.818182 0.620473 -1.000000
-0.818182 0.100000 -1.000000
-0.818182 0.100000 -0.090909
-0.818182 0.100000 0.090909
-1.000000 0.100000 0.636364
-1.000000 0.138760 0.454545
-1.000000 0.100000 0.454545
-0.818182 0.100000 0.454545
-0.818182 0.100000 0.636364
-1.000000 0.100000 -1.000000
0.454545 0.138760 0.090909
-0.454545 0.300000 0.636364
-0.818182 0.100000 -0.272727
0.272727 0.138760 0.090909
-1.000000 0.100000 0.090909
0.090909 0.620473 -0.636364
-0.818182 0.100000 0.272727
-0.272727 0.138760 0.818182
-0.818182 0.100000 0.818182
-1.000000 0.300000 0.818182
-0.818182 0.300000 1.000000
-0.818182 0.300000 0.818182
0.636364 0.300000 -0.272727
0.818182 0.300000 -0.090909
0.818182 0.300000 -0.272727
0.454545 0.300000 0.454545
0.636364 0.300000 0.454545
0.272727 0.300000 -0.636364
-0.090909 0.300000 0.454545
0.090909 0.300000 0.636364
-0.090909 0.300000 0.090909
-0.636364 0.300000 -0.818182
-0.454545 0.300000 -0.636364
-0.454545 0.300000 -0.818182
-0.636364 0.300000 -0.454545
-0.454545 0.300000 -0.272727
-0.454545 0.300000 -0.454545
-0.636364 0.300000 0.454545
-0.454545 0.300000 0.454545
-0.818182 0.300000 -0.636364
-1.000000 0.300000 -0.454545
-0.636364 0.300000 0.636364
-0.818182 0.100000 1.000000
-1.000000 0.300000 1.000000
-1.000000 0.100000 1.000000
-1.000000 0.100000 0.818182
-0.272727 0.300000 0.272727
-0.636364 0.300000 -0.636364
0.636364 0.300000 -0.090909
0.454545 0.300000 0.636364
0.090909 0.300000 -0.454545
-0.636364 0.300000 -0.272727
0.090909 0.620473 0.818182
0.272727 0.620473 0.818182
1.000000 0.620473 0.454545
0.636364 0.620473 -0.818182
0.818182 0.620473 -0.636364
0.818182 0.620473 -0.818182
0.454545 0.620473 -1.000000
0.636364 0.620473 -1.000000
0.454545 0.620473 -0.272727
0.636364 0.620473 -0.090909
0.636364 0.620473 -0.272727
0.090909 0.620473 -0.090909
0.272727 0.620473 0.090909
-0.090909 0.620473 -0.818182
0.090909 0.620473 -0.818182
-0.272727 0.620473 -1.000000
-0.090909 0.620473 -1.000000
-0.272727 0.620473 0.636364
-0.636364 0.620473 -1.000000
-0.818182 0.620473 -0.272727
-0.636364 0.620473 -0.090909
-0.636364 0.620473 -0.272727
-0.818182 0.620473 0.090909
-1.000000 0.620473 0.272727
-0.818182 0.620473 0.272727
0.454545 0.620473 -0.818182
0.454545 0.100000 -1.000000
0.818182 0.620473 0.454545
-0.818182 0.620473 -0.818182
0.454545 0.620473 -0.090909
-0.090909 0.620473 -0.636364
0.636364 0.620473 -0.636364
-0.454545 0.620473 0.818182
-1.000000 0.100000 0.272727
-0.818182 0.620473 -0.090909
-1.000000 0.620473 0.090909
0.636364 0.138760 0.818182
0.818182 0.138760 1.000000
0.818182 0.138760 0.818182
-0.090909 0.138760 1.000000
-0.090909 0.138760 0.818182
-0.818182 0.138760 0.818182
-0.636364 0.138760 1.000000
-0.636364 0.138760 0.818182
0.818182 0.138760 -1.000000
1.000000 0.138760 -0.818182
1.000000 0.138760 -1.000000
0.818182 0.138760 -0.272727
0.818182 0.138760 0.272727
0.818182 0.138760 0.090909
0.272727 0.138760 -1.000000
0.454545 0.138760 -0.818182
0.454545 0.138760 -1.000000
0.272727 0.138760 -0.636364
0.454545 0.138760 -0.454545
0.454545 0.138760 -0.636364
0.454545 0.138760 0.272727
-0.090909 0.138760 -0.636364
0.090909 0.138760 -0.454545
0.090909 0.138760 -0.636364
-0.090909 0.138760 -0.272727
-0.454545 0.138760 -1.000000
-0.272727 0.138760 -1.000000
-0.454545 0.138760 -0.090909
-0.272727 0.138760 -0.090909
-0.818182 0.138760 0.272727
-0.636364 0.138760 0.272727
-1.000000 0.138760 -0.818182
-0.818182 0.138760 -0.636364
-0.818182 0.138760 -0.818182
-0.818182 0.138760 -0.272727
-1.000000 0.138760 -0.090909
-0.818182 0.138760 -0.090909
-0.818182 0.138760 0.636364
-0.818182 0.138760 0.454545
0.636364 0.138760 0.272727
-1.000000 0.100000 -0.818182
-0.272727 0.138760 1.000000
-0.454545 0.138760 -0.818182
-0.636364 0.100000 1.000000
-0.818182 0.138760 1.000000
-1.000000 0.138760 -0.636364
-0.454545 0.138760 0.090909
0.818182 0.138760 -0.818182
1.000000 0.100000 -1.000000
-1.000000 0.138760 0.636364
0.272727 0.138760 -0.818182
0.272727 0.138760 -0.454545
0.454545 2.198564 -0.090909
0.636364 2.198564 0.090909
0.636364 2.198564 -0.090909
0.090909 2.198564 -0.454545
0.272727 2.198564 -0.454545
0.272727 2.198564 0.454545
-0.090909 2.198564 -0.272727
0.090909 2.198564 -0.090909
-0.272727 2.198564 -0.272727
-0.272727 2.198564 -0.454545
-0.454545 2.198564 0.272727
-0.454545 2.198564 0.090909
-0.090909 2.198564 -0.090909
0.090909 2.198564 0.454545
0.454545 2.198564 0.090909
-0.636364 2.198564 0.272727
-0.454545 2.198564 -0.272727
0.454545 1.217105 -0.454545
0.636364 1.217105 -0.272727
0.636364 1.217105 -0.454545
0.272727 1.217105 0.454545
0.454545 1.217105 0.636364
0.454545 1.217105 0.454545
0.272727 1.217105 -0.090909
0.090909 1.217105 0.272727
0.090909 1.217105 0.090909
-0.272727 1.217105 -0.272727
-0.090909 1.217105 -0.272727
-0.090909 1.217105 0.636364
-0.090909 1.217105 0.454545
-0.454545 1.217105 0.090909
-0.272727 1.217105 0.090909
-0.454545 1.217105 0.272727
0.454545 1.217105 -0.272727
-0.272727 1.217105 -0.090909
0.272727 1.217105 0.636364
-0.272727 1.217105 0.636364
-0.090909 1.217105 0.272727
0.818182 0.693883 -0.272727
1.000000 0.693883 -0.090909
1.000000 0.693883 -0.272727
-0.454545 0.693883 -0.818182
-0.272727 0.693883 -0.818182
-0.272727 0.693883 -0.090909
-0.272727 0.693883 -0.272727
-0.454545 0.693883 0.272727
-0.454545 0.693883 0.454545
0.818182 0.693883 -0.090909
-0.454545 0.693883 -0.636364
-0.454545 0.693883 -0.090909
3 0 1 2
3 3 4 5
3 6 7 8
3 9 10 11
3 5 11 2
3 12 13 14
3 15 16 17
3 18 19 20
3 21 22 23
3 24 25 21
3 26 27 28
3 29 30 31
3 0 32 1
3 33 10 34
3 35 36 33
3 37 38 39
3 40 41 42
3 43 44 45
3 46 47 44
3 48 49 47
3 28 50 51
3 52 6 53
3 54 7 6
3 55 56 34
3 57 58 59
3 60 17 58
3 61 43 62
3 63 64 7
3 65 48 46
3 66 67 68
3 69 70 71
3 72 54 52
3 73 74 75
3 40 57 63
3 76 60 57
3 77 15 60
3 78 79 80
3 81 65 82
3 83 84 65
3 85 86 87
3 57 88 63
3 89 90 91
3 92 40 42
3 93 76 40
3 94 95 96
3 97 23 77
3 84 98 48
3 99 83 81
3 100 101 22
3 14 102 103
3 104 105 102
3 106 92 105
3 107 108 66
3 91 109 93
3 71 110 69
3 111 21 97
3 3 99 4
3 112 12 99
3 113 114 115
3 116 117 89
3 55 118 119
3 120 121 122
3 122 91 120
3 107 123 87
3 116 111 124
3 125 24 111
3 126 112 3
3 127 128 30
3 93 129 91
3 130 87 131
3 14 132 104
3 133 122 85
3 106 134 85
3 71 116 89
3 125 135 136
3 136 31 125
3 33 137 138
3 28 139 26
3 51 130 139
3 39 140 84
3 107 141 133
3 18 69 133
3 131 142 143
3 144 145 71
3 20 146 144
3 55 29 136
3 68 147 130
3 148 149 144
3 150 68 51
3 151 152 153
3 154 155 151
3 156 157 28
3 87 158 104
3 144 159 119
3 160 55 119
3 85 161 106
3 78 162 163
3 76 164 77
3 165 153 150
3 145 166 116
3 167 154 151
3 168 169 154
3 73 170 171
3 73 160 148
3 144 172 20
3 173 33 138
3 24 174 127
3 175 165 80
3 113 176 165
3 115 167 176
3 175 177 178
3 179 171 168
3 180 73 171
3 181 182 183
3 184 173 75
3 185 35 173
3 186 175 178
3 120 187 92
3 160 188 138
3 115 1 189
3 91 190 120
3 179 191 180
3 112 192 143
3 193 183 184
3 10 194 34
3 181 195 185
3 196 197 198
3 199 200 201
3 202 164 203
3 142 13 204
3 205 206 166
3 172 70 207
3 208 209 210
3 211 212 213
3 214 188 215
3 216 217 114
3 75 215 160
3 165 208 80
3 96 216 113
3 138 218 173
3 136 205 145
3 115 217 94
3 167 211 176
3 162 209 150
3 219 220 221
3 116 206 125
3 221 196 222
3 153 212 151
3 20 207 69
3 71 223 144
3 80 210 162
3 39 201 37
3 72 199 39
3 109 203 76
3 173 214 75
3 150 224 165
3 52 225 72
3 143 204 12
3 77 226 97
3 97 202 109
3 176 213 153
3 222 198 195
3 14 227 131
3 37 200 52
3 195 197 219
3 151 228 167
3 229 174 230
3 88 231 64
3 232 233 234
3 235 232 236
3 237 238 239
3 240 241 161
3 242 192 243
3 244 242 245
3 137 56 246
3 177 79 247
3 248 249 250
3 251 252 253
3 82 254 81
3 81 235 255
3 59 256 57
3 122 240 85
3 179 248 189
3 178 247 78
3 31 230 24
3 61 232 82
3 180 253 193
3 106 241 120
3 80 257 175
3 102 239 39
3 26 243 112
3 167 249 168
3 82 234 43
3 65 232 82
3 72 258 105
3 28 244 156
3 143 259 139
3 105 237 102
3 138 246 55
3 46 260 65
3 7 231 59
3 191 251 180
3 156 245 126
3 34 261 33
3 193 252 262
3 189 250 167
3 43 233 46
3 126 242 26
3 39 238 72
3 168 263 179
3 139 242 26
3 30 229 31
3 262 264 191
3 255 236 61
3 265 266 267
3 194 268 269
3 270 271 272
3 273 274 275
3 140 276 98
3 41 277 278
3 279 280 281
3 282 283 284
3 190 285 187
3 286 287 288
3 67 289 147
3 290 157 291
3 292 19 293
3 294 74 295
3 296 297 298
3 299 300 301
3 182 302 303
3 42 278 54
3 219 270 195
3 143 287 131
3 63 304 40
3 96 296 305
3 34 269 29
3 9 306 10
3 175 297 113
3 193 295 73
3 28 307 162
3 255 280 81
3 75 303 184
3 23 267 15
3 83 283 103
3 308 309 219
3 163 291 156
3 189 301 179
3 195 272 35
3 162 290 163
3 15 266 100
3 305 298 175
3 154 293 18
3 43 273 62
3 113 310 96
3 20 311 169
3 184 294 193
3 29 268 9
3 92 285 93
3 4 281 255
3 184 302 185
3 1 299 189
3 139 288 143
3 48 276 37
3 179 300 0
3 169 292 154
3 131 147 130
3 45 312 43
3 62 275 313
3 130 286 139
3 313 274 45
3 130 289 107
3 54 277 63
3 183 303 184
3 99 279 4
3 185 314 181
3 81 315 99
3 35 271 308
3 14 282 12
3 12 284 83
3 22 265 23
3 103 316 14
3 317 318 319
3 320 132 321
3 117 322 90
3 323 324 123
3 152 325 326
3 170 327 328
3 133 323 107
3 105 319 72
3 85 329 133
3 124 330 116
3 42 331 92
3 72 318 42
3 171 328 169
3 169 327 148
3 68 325 66
3 148 332 73
3 87 320 131
3 131 321 14
3 91 322 124
3 153 326 68
3 87 324 85
3 104 123 87
3 66 333 151
3 92 317 105
3 334 335 336
3 337 338 339
3 86 340 158
3 110 341 342
3 343 141 344
3 118 345 346
3 347 146 348
3 145 345 136
3 169 348 20
3 122 341 89
3 104 340 106
3 103 336 84
3 144 349 148
3 66 344 107
3 39 350 102
3 102 334 103
3 124 339 109
3 133 351 18
3 97 352 111
3 84 335 39
3 111 337 124
3 119 346 145
3 148 347 169
3 136 353 55
3 18 343 66
3 69 342 122
3 109 338 97
3 89 354 71
3 355 356 357
3 358 50 359
3 155 360 361
3 362 159 149
3 119 363 160
3 37 357 49
3 162 359 28
3 53 364 52
3 51 365 150
3 160 362 148
3 66 360 18
3 52 355 37
3 150 358 162
3 151 361 66
3 49 356 53
3 18 366 154
3 2 11 191
3 11 221 222
3 222 181 11
3 181 183 11
3 11 183 262
3 305 186 2
3 1 94 2
3 94 96 2
3 96 305 2
3 262 191 11
3 191 0 2
3 5 2 126
3 2 186 178
3 178 78 2
3 78 163 2
3 2 163 156
3 62 313 5
3 4 255 5
3 255 61 5
3 61 62 5
3 156 126 2
3 126 3 5
3 8 5 53
3 5 313 45
3 45 44 5
3 44 47 5
3 5 47 49
3 17 16 8
3 7 59 8
3 59 58 8
3 58 17 8
3 49 53 5
3 53 6 8
3 11 8 30
3 8 16 100
3 100 22 8
3 22 25 8
3 8 25 127
3 219 221 11
3 10 36 11
3 36 308 11
3 308 219 11
3 127 30 8
3 30 9 11
3 5 8 11
3 12 204 13
3 15 100 16
3 18 293 19
3 21 25 22
3 24 127 25
3 26 242 27
3 29 9 30
3 0 300 32
3 33 36 10
3 35 308 36
3 37 276 38
3 40 304 41
3 43 46 44
3 46 48 47
3 48 37 49
3 28 359 50
3 52 54 6
3 54 63 7
3 55 246 56
3 57 60 58
3 60 15 17
3 61 82 43
3 63 88 64
3 65 84 48
3 66 108 67
3 69 207 70
3 72 42 54
3 73 295 74
3 40 76 57
3 76 77 60
3 77 23 15
3 78 247 79
3 81 83 65
3 83 103 84
3 85 134 86
3 57 256 88
3 89 117 90
3 92 93 40
3 93 109 76
3 94 217 95
3 97 21 23
3 84 140 98
3 99 12 83
3 100 266 101
3 14 104 102
3 104 106 105
3 106 120 92
3 107 289 108
3 91 124 109
3 71 354 110
3 111 24 21
3 3 112 99
3 112 143 12
3 113 216 114
3 116 330 117
3 55 353 118
3 120 241 121
3 122 89 91
3 107 323 123
3 116 125 111
3 125 31 24
3 126 26 112
3 127 174 128
3 93 285 129
3 130 107 87
3 14 321 132
3 133 69 122
3 106 340 134
3 71 145 116
3 125 206 135
3 136 29 31
3 33 261 137
3 28 51 139
3 51 68 130
3 39 38 140
3 107 344 141
3 18 20 69
3 131 227 142
3 144 119 145
3 20 348 146
3 55 34 29
3 68 67 147
3 148 362 149
3 150 153 68
3 151 333 152
3 154 366 155
3 156 291 157
3 87 86 158
3 144 149 159
3 160 138 55
3 85 240 161
3 78 80 162
3 76 203 164
3 165 176 153
3 145 205 166
3 167 168 154
3 168 171 169
3 73 332 170
3 73 75 160
3 144 223 172
3 173 35 33
3 24 230 174
3 175 113 165
3 113 115 176
3 115 189 167
3 175 257 177
3 179 180 171
3 180 193 73
3 181 314 182
3 184 185 173
3 185 195 35
3 186 305 175
3 120 190 187
3 160 215 188
3 115 94 1
3 91 129 190
3 179 0 191
3 112 243 192
3 193 262 183
3 10 306 194
3 181 222 195
3 196 220 197
3 199 225 200
3 202 226 164
3 142 227 13
3 205 135 206
3 172 223 70
3 208 224 209
3 211 228 212
3 214 218 188
3 216 95 217
3 75 214 215
3 165 224 208
3 96 95 216
3 138 188 218
3 136 135 205
3 115 114 217
3 167 228 211
3 162 210 209
3 219 197 220
3 116 166 206
3 221 220 196
3 153 213 212
3 20 172 207
3 71 70 223
3 80 208 210
3 39 199 201
3 72 225 199
3 109 202 203
3 173 218 214
3 150 209 224
3 52 200 225
3 143 142 204
3 77 164 226
3 97 226 202
3 176 211 213
3 222 196 198
3 14 13 227
3 37 201 200
3 195 198 197
3 151 212 228
3 229 128 174
3 88 256 231
3 232 260 233
3 235 254 232
3 237 258 238
3 240 121 241
3 242 259 192
3 244 27 242
3 137 261 56
3 177 257 79
3 248 263 249
3 251 264 252
3 82 232 254
3 81 254 235
3 59 231 256
3 122 121 240
3 179 263 248
3 178 177 247
3 31 229 230
3 61 236 232
3 180 251 253
3 106 161 241
3 80 79 257
3 102 237 239
3 26 242 243
3 167 250 249
3 82 232 234
3 65 260 232
3 72 238 258
3 28 27 244
3 143 192 259
3 105 258 237
3 138 137 246
3 46 233 260
3 7 64 231
3 191 264 251
3 156 244 245
3 34 56 261
3 193 253 252
3 189 248 250
3 43 234 233
3 126 245 242
3 39 239 238
3 168 249 263
3 139 259 242
3 30 128 229
3 262 252 264
3 255 235 236
3 265 101 266
3 194 306 268
3 270 309 271
3 273 312 274
3 140 38 276
3 41 304 277
3 279 315 280
3 282 316 283
3 190 129 285
3 286 147 287
3 67 108 289
3 290 307 157
3 292 311 19
3 294 303 74
3 296 310 297
3 299 32 300
3 182 314 302
3 42 41 278
3 219 309 270
3 143 288 287
3 63 277 304
3 96 310 296
3 34 194 269
3 9 268 306
3 175 298 297
3 193 294 295
3 28 157 307
3 255 281 280
3 75 74 303
3 23 265 267
3 83 284 283
3 308 271 309
3 163 290 291
3 189 299 301
3 195 270 272
3 162 307 290
3 15 267 266
3 305 296 298
3 154 292 293
3 43 312 273
3 113 297 310
3 20 19 311
3 184 303 294
3 29 269 268
3 92 187 285
3 4 279 281
3 184 303 302
3 1 32 299
3 139 286 288
3 48 98 276
3 179 301 300
3 169 311 292
3 131 287 147
3 45 274 312
3 62 273 275
3 130 147 286
3 313 275 274
3 130 147 289
3 54 278 277
3 183 182 303
3 99 315 279
3 185 302 314
3 81 280 315
3 35 272 271
3 14 316 282
3 12 282 284
3 22 101 265
3 103 283 316
3 317 331 318
3 320 123 132
3 117 330 322
3 323 329 324
3 152 333 325
3 170 332 327
3 133 329 323
3 105 317 319
3 85 324 329
3 124 322 330
3 42 318 331
3 72 319 318
3 171 170 328
3 169 328 327
3 68 326 325
3 148 327 332
3 87 123 320
3 131 320 321
3 91 90 322
3 153 152 326
3 87 123 324
3 104 132 123
3 66 325 333
3 92 331 317
3 334 350 335
3 337 352 338
3 86 134 340
3 110 354 341
3 343 351 141
3 118 353 345
3 347 349 146
3 145 346 345
3 169 347 348
3 122 342 341
3 104 158 340
3 103 334 336
3 144 146 349
3 66 343 344
3 39 335 350
3 102 350 334
3 124 337 339
3 133 141 351
3 97 338 352
3 84 336 335
3 111 352 337
3 119 118 346
3 148 349 347
3 136 345 353
3 18 351 343
3 69 110 342
3 109 339 338
3 89 341 354
3 355 364 356
3 358 365 50
3 155 366 360
3 362 363 159
3 119 159 363
3 37 355 357
3 162 358 359
3 53 356 364
3 51 50 365
3 160 363 362
3 66 361 360
3 52 364 355
3 150 365 358
3 151 155 361
3 49 357 356
3 18 360 366
